HIERARCHY
ROOT Hips
{
  OFFSET 35.5189 99.895 15.0865
  CHANNELS 6 Xposition Yposition Zposition Zrotation Xrotation Yrotation
  JOINT ToSpine
  {
    OFFSET -0.0105055 1.38907 -7.13956
    CHANNELS 3 Zrotation Xrotation Yrotation
    JOINT Spine
    {
      OFFSET 0.0105055 10 1
      CHANNELS 3 Zrotation Xrotation Yrotation
      JOINT Spine1
      {
        OFFSET 0 12 1.60637
        CHANNELS 3 Zrotation Xrotation Yrotation
        JOINT Neck
        {
          OFFSET 0 27 2.26658
          CHANNELS 3 Zrotation Xrotation Yrotation
          JOINT Head
          {
            OFFSET 0 9 2.12705
            CHANNELS 3 Zrotation Xrotation Yrotation
            End Site
            {
              OFFSET 0 11 2
            }
          }
        }
        JOINT LeftShoulder
        {
          OFFSET 8 19.6109 2.86452
          CHANNELS 3 Zrotation Xrotation Yrotation
          JOINT LeftArm
          {
            OFFSET 12 1 0.681055
            CHANNELS 3 Zrotation Xrotation Yrotation
            JOINT LeftForeArm
            {
              OFFSET 19 0 -1.52608
              CHANNELS 3 Zrotation Xrotation Yrotation
              JOINT LeftHand
              {
                OFFSET 23 0 0
                CHANNELS 3 Zrotation Xrotation Yrotation
                End Site
                {
                  OFFSET 10 0 0
                }
              }
            }
          }
        }
        JOINT RightShoulder
        {
          OFFSET -8 19.6109 2.86452
          CHANNELS 3 Zrotation Xrotation Yrotation
          JOINT RightArm
          {
            OFFSET -12 1 0.681055
            CHANNELS 3 Zrotation Xrotation Yrotation
            JOINT RightForeArm
            {
              OFFSET -19 0 -1.52608
              CHANNELS 3 Zrotation Xrotation Yrotation
              JOINT RightHand
              {
                OFFSET -23 0 0
                CHANNELS 3 Zrotation Xrotation Yrotation
                End Site
                {
                  OFFSET -10 0 0
                }
              }
            }
          }
        }
      }
    }
  }
  JOINT LeftUpLeg
  {
    OFFSET 9 -7.17245 0
    CHANNELS 3 Zrotation Xrotation Yrotation
    JOINT LeftLeg
    {
      OFFSET 0 -44.1113 0
      CHANNELS 3 Zrotation Xrotation Yrotation
      JOINT LeftFoot
      {
        OFFSET 0 -36.1829 0
        CHANNELS 3 Zrotation Xrotation Yrotation
        JOINT LeftToeBase
        {
          OFFSET 0 -4.84184 13
          CHANNELS 3 Zrotation Xrotation Yrotation
          End Site
          {
            OFFSET 0 1 6
          }
        }
      }
    }
  }
  JOINT RightUpLeg
  {
    OFFSET -9 -7.17245 0
    CHANNELS 3 Zrotation Xrotation Yrotation
    JOINT RightLeg
    {
      OFFSET 0 -44.0551 0
      CHANNELS 3 Zrotation Xrotation Yrotation
      JOINT RightFoot
      {
        OFFSET 0 -36.1469 0
        CHANNELS 3 Zrotation Xrotation Yrotation
        JOINT RightToeBase
        {
          OFFSET 0 -4.92256 13
          CHANNELS 3 Zrotation Xrotation Yrotation
          End Site
          {
            OFFSET 0 1 6
          }
        }
      }
    }
  }
}
MOTION
Frames:	17
Frame Time:	0.0333333
35.5126 99.895 15.0848 1.3762 -5.69974 -0.997889 0 0 0 3.92992 -3.46919 1.3706 -6.05709 6.56316 2.51737 9.23418 6.53316 -3.00568 -5.22816 3.63348 1.57897 -27.6621 3.63857 -7.24281 -28.1946 6.67591 -36.2521 -47.7223 -29.6857 -65.7588 -14.7532 -0.624572 4.82795 23.2871 5.93658 16.3889 32.197 -4.93386 21.7451 27.7345 -17.7314 59.9186 13.488 -0.322033 -2.6921 -0.365446 7.4508 6.44238 0.00957735 2.6014 -0.266296 0.575389 -5.17624 0.0258874 0.362983 0.142711 -1.56283 -3.4644 6.52253 -10.0406 0.0970828 4.22972 -2.92054 -4.64997 -2.17583 -0.0879854 2.53015 -9.21578 -1.59089 
35.4328 99.9038 15.0966 1.24044 -5.57892 -0.948023 0 0 0 3.60901 -3.67461 1.34454 -5.44738 6.69213 2.34232 9.22516 6.31939 -3.03303 -5.92827 4.12525 1.73309 -28.0568 3.62715 -7.09012 -27.9205 6.49206 -36.4389 -47.829 -30.0611 -65.594 -15.4698 -0.72332 5.28882 22.9391 5.86117 16.3581 32.3288 -4.77819 21.9144 27.9247 -17.8798 59.9181 13.5681 -0.317998 -2.68341 -0.09221 7.23588 6.65457 -0.0936999 2.80694 -0.41899 0.452169 -5.33045 0.0210403 0.558795 1.31969 -2.57159 -3.24705 6.43452 -9.86527 0.0283318 4.16224 -2.94929 -4.20618 -2.10037 -0.0781538 2.46091 -8.93184 -1.64433 
35.2455 99.9271 15.1622 0.810122 -5.18263 -0.564105 0 0 0 3.25061 -4.29048 1.15729 -4.49599 6.77918 1.89255 8.25688 6.57469 -2.52163 -4.60022 3.88239 1.56682 -28.7008 3.62843 -6.9024 -28.2341 6.19097 -36.5901 -48.7362 -31.2488 -65.527 -16.2282 -0.949967 6.62876 22.2922 5.76117 16.4342 32.8651 -4.54645 21.9538 27.9079 -17.9298 59.8333 13.5497 -0.313324 -2.63653 0.836507 6.66612 7.31203 -0.616059 3.21637 -1.65706 0.996604 -5.24239 0.0456274 0.536703 0.853613 -2.40946 -2.41657 6.24921 -9.20573 -0.216784 3.71193 -3.55345 -3.76084 -1.04239 -0.0337899 2.64718 -9.49835 -2.68173 
35.2254 99.9176 15.2108 0.781206 -5.28287 -0.553269 0 0 0 3.25551 -4.22379 1.15906 -4.46851 6.77435 1.88353 8.3721 6.76606 -2.658 -4.73765 3.67053 1.5114 -28.5692 3.63646 -6.96413 -28.1989 6.21154 -36.5749 -47.9344 -30.98 -65.0832 -14.8723 -0.597494 4.59315 22.3928 5.81268 16.544 32.7069 -4.61109 21.7558 28.0418 -18.0021 59.8769 13.7682 -0.324391 -2.68559 0.919795 6.76037 7.4663 -0.791738 3.33921 -1.9716 1.14218 -5.20539 0.0520548 0.330964 0.472307 -1.48607 -2.34736 6.40503 -9.19064 -0.229161 3.70322 -3.89777 -3.99511 -1.18922 -0.0416717 2.6044 -9.40986 -2.17764 
35.2075 99.9187 15.2392 0.744111 -5.23947 -0.571582 0 0 0 3.35104 -4.34197 1.1751 -4.58016 6.84466 1.91765 8.26702 6.62099 -2.57386 -4.33415 4.04338 1.45933 -28.5724 3.64699 -6.99333 -28.7835 5.32693 -36.6976 -44.8282 -30.3016 -63.0883 -15.1873 -0.616421 4.62116 22.4075 5.80534 16.5097 32.8206 -4.62232 21.7293 27.746 -17.8117 59.822 13.4992 -0.294975 -2.49231 0.96752 6.72442 7.47901 -0.773121 3.36484 -1.98004 1.1194 -5.2797 0.0501977 0.3093 0.765744 -1.46221 -2.30721 6.37711 -9.16268 -0.179836 3.77322 -3.78213 -4.2059 -1.3099 -0.0467276 2.58517 -9.26801 -2.53238 
35.2309 99.9384 15.2872 0.682031 -5.32126 -0.617891 0 0 0 3.46031 -4.36336 1.19287 -4.49862 6.9508 1.9251 8.02372 6.64371 -2.46307 -4.16153 4.11562 1.44307 -28.6606 3.64775 -6.96966 -28.706 5.46127 -36.6893 -45.093 -30.3545 -63.2651 -15.2499 -0.623832 4.65746 22.2596 5.79568 16.5726 32.918 -4.77119 21.6667 27.7285 -17.793 59.8289 13.5964 -0.308357 -2.58624 0.951125 6.96527 7.42271 -0.728214 3.10655 -1.9825 1.30462 -5.15418 0.0538388 0.28359 0.491959 -1.29692 -2.27419 6.48964 -9.21063 -0.257592 3.79706 -3.87426 -3.56949 -1.63851 -0.0470249 2.34588 -8.44531 -1.84585 
35.2413 99.9415 15.3193 0.702054 -5.34705 -0.58262 0 0 0 3.29501 -4.40283 1.13425 -4.30318 7.02706 1.83342 7.93684 6.63638 -2.36724 -4.05939 4.14103 1.48146 -28.7522 3.63351 -6.90223 -28.3495 5.68139 -36.6413 -45.4967 -30.363 -63.5824 -15.2521 -0.621915 4.64099 22.2837 5.82357 16.6517 32.8725 -4.81931 21.7306 27.5382 -17.7613 59.6704 13.6946 -0.311266 -2.59177 0.879916 7.03512 7.33388 -0.634052 3.0433 -1.93121 1.29042 -5.09318 0.0565715 0.272646 0.495754 -1.25319 -2.28214 6.59685 -9.23332 -0.295769 3.67557 -3.96333 -3.38468 -1.5971 -0.0451508 2.34315 -8.43908 -1.80214 
35.2251 99.9046 15.3504 0.706766 -5.34917 -0.567079 0 0 0 3.23262 -4.48638 1.16977 -4.25904 7.14982 1.84821 7.81453 6.51609 -2.3241 -3.74503 4.26006 1.39656 -28.7925 3.646 -6.92608 -28.0597 5.87256 -36.7729 -45.8638 -30.5689 -63.7353 -14.7228 -0.58127 4.49744 22.2256 5.80689 16.6328 32.951 -4.82273 21.6827 27.5504 -17.7316 59.7238 13.6079 -0.306236 -2.56596 0.996116 6.92443 7.50759 -0.788309 3.36797 -2.1513 1.4283 -5.29365 0.0561281 0.284522 0.702847 -1.34808 -2.29386 6.60942 -9.21837 -0.177727 3.69949 -3.82532 -3.94453 -1.37729 -0.0422127 2.53885 -9.14998 -2.16281 
35.2161 99.9183 15.3753 0.635304 -5.31474 -0.493612 0 0 0 3.30452 -4.57974 1.17126 -4.21587 7.21757 1.83588 7.85074 6.52711 -2.37874 -3.97844 4.16802 1.41324 -28.8028 3.64982 -6.93399 -28.1954 5.83085 -36.7952 -45.8559 -30.5963 -63.7105 -14.8312 -0.593874 4.56093 22.1746 5.79289 16.6183 32.9493 -4.84145 21.5834 27.6552 -17.7576 59.7995 13.3647 -0.290619 -2.48056 1.07363 6.91401 7.51902 -0.775612 3.32072 -2.28663 1.54841 -5.17412 0.0547079 0.261709 0.191857 -1.13849 -2.18809 6.60893 -9.16986 -0.245454 3.68628 -4.0873 -3.68238 -1.55763 -0.0393245 2.38255 -8.6115 -1.73594 
35.2062 99.9216 15.4087 0.615518 -5.29475 -0.510162 0 0 0 3.44494 -4.6815 1.19356 -4.41679 7.28911 1.89165 7.89015 6.64107 -2.43899 -3.94966 4.11146 1.36508 -28.8809 3.65718 -6.93222 -28.4929 5.55411 -36.9085 -44.9561 -30.5639 -63.0113 -14.9149 -0.572104 4.36859 22.3483 5.83655 16.654 32.8681 -4.86832 21.5512 27.6088 -17.7895 59.707 13.5473 -0.28334 -2.38515 1.03678 6.87635 7.42372 -0.632119 3.39332 -2.1663 1.3038 -5.32978 0.0547439 0.213945 0.683607 -1.0541 -2.18536 6.60276 -9.18045 -0.195964 3.70465 -4.04914 -3.65416 -1.54024 -0.0375777 2.43202 -8.81085 -1.70928 
35.2065 99.9184 15.4287 0.625367 -5.26792 -0.465088 0 0 0 3.51021 -4.70377 1.25414 -4.5611 7.31696 1.9793 8.20575 6.46175 -2.62972 -4.16896 4.26771 1.33735 -28.6769 3.6624 -7.00667 -28.4637 5.82198 -37.0239 -45.2008 -30.6053 -63.1804 -14.732 -0.568984 4.39918 22.5197 5.80188 16.4256 32.647 -4.80317 21.6065 27.8434 -17.8973 59.8091 13.5525 -0.295387 -2.48476 1.03387 6.82193 7.42346 -0.622561 3.47727 -2.24147 1.22898 -5.47876 0.0592533 0.171512 0.797392 -0.906498 -2.14288 6.6032 -9.09207 -0.260715 3.628 -4.13977 -3.96896 -1.34169 -0.038076 2.52299 -9.12573 -1.93888 
35.2036 99.8815 15.4375 0.677221 -5.19928 -0.527941 0 0 0 3.45556 -4.78509 1.32781 -4.58083 7.34047 2.04764 8.10052 6.3168 -2.63123 -3.91684 4.46652 1.23116 -28.5741 3.6647 -7.04353 -28.219 6.07499 -37.0285 -45.8118 -30.6703 -63.6258 -14.7101 -0.545038 4.22071 22.3739 5.74031 16.311 32.8907 -4.82963 21.6663 27.8139 -17.826 59.8743 13.7262 -0.333398 -2.76987 0.925788 6.62579 7.32899 -0.526479 3.74434 -1.97451 1.40047 -5.51338 0.0674317 0.283911 0.476112 -1.29505 -2.20115 6.49889 -9.07194 -0.221777 3.63609 -3.9943 -4.21949 -1.14221 -0.0425483 2.66699 -9.64702 -2.26122 
35.215 99.9035 15.4715 0.625329 -5.20751 -0.516056 0 0 0 3.55941 -4.7816 1.28699 -4.69 7.34123 2.03751 8.35882 6.33504 -2.7002 -4.17095 4.43492 1.31913 -28.449 3.63863 -7.00577 -28.3904 6.05674 -37.0485 -46.1782 -30.8451 -63.8003 -14.7554 -0.538819 4.15876 22.5605 5.79854 16.3887 32.7445 -4.85218 21.5871 27.9214 -17.8332 59.9774 13.7041 -0.3298 -2.74384 1.03311 6.75718 7.44653 -0.662516 3.51541 -2.12829 1.28889 -5.3597 0.060331 0.25053 0.608675 -1.18768 -2.18828 6.54909 -9.15154 -0.166896 3.71371 -4.0132 -3.95194 -1.52723 -0.0526668 2.46261 -8.85582 -2.1036 
35.2018 99.923 15.4834 0.652609 -5.14918 -0.520653 0 0 0 3.53103 -4.89142 1.30451 -4.68693 7.39491 2.05707 8.22822 6.29382 -2.67664 -3.98637 4.58886 1.25143 -28.4422 3.65379 -7.05135 -28.3809 5.85647 -36.9778 -45.7787 -30.644 -63.6171 -14.8502 -0.579407 4.44345 22.6332 5.81631 16.402 32.6254 -4.87116 21.6381 28.2327 -18.0092 60.0662 13.6598 -0.33397 -2.78127 0.962002 6.7278 7.34507 -0.546258 3.49262 -1.93279 1.02093 -5.51554 0.0481866 0.304957 0.72171 -1.43426 -2.16517 6.4896 -9.08343 -0.297174 3.7004 -4.2112 -3.82478 -1.67399 -0.0558494 2.36571 -8.55748 -1.67494 
35.1747 99.8924 15.5232 0.605019 -5.17033 -0.512211 0 0 0 3.56374 -4.88578 1.28714 -4.7955 7.37396 2.04541 8.67197 6.34706 -2.81641 -4.62466 4.59307 1.43808 -28.3766 3.64422 -7.04337 -28.4864 5.78824 -37.0771 -45.7344 -30.819 -63.4643 -14.6553 -0.54412 4.23593 22.6644 5.83606 16.4484 32.7535 -4.91514 21.6435 28.2162 -18.0238 60.0298 13.8095 -0.333899 -2.75698 1.14023 6.65384 7.55939 -0.719365 3.79499 -2.35805 1.14376 -5.7404 0.0534345 0.179967 0.878588 -0.961425 -2.092 6.52257 -9.00662 -0.267908 3.68947 -4.20382 -4.14264 -1.41672 -0.051335 2.53522 -9.156 -2.03316 
35.1881 99.8786 15.5458 0.665756 -5.17579 -0.453423 0 0 0 3.22838 -4.85995 1.27785 -4.36102 7.27244 1.9474 8.40481 6.60046 -2.76236 -4.54392 4.40941 1.38703 -28.7094 3.66449 -7.00306 -28.2558 5.67607 -36.9898 -45.1766 -30.5441 -63.2027 -15.541 -0.648016 4.70961 22.5086 5.82377 16.5068 32.7253 -4.89691 21.5196 28.1015 -17.9628 59.9916 13.9161 -0.333729 -2.73428 1.11284 6.65572 7.58766 -0.773729 3.81987 -2.28858 1.19105 -5.79824 0.0604812 0.252119 1.01584 -1.28313 -2.15461 6.56774 -9.03818 -0.229241 3.58131 -4.0001 -4.09908 -1.12048 -0.0397085 2.71238 -9.78584 -2.5351 
35.2098 99.8929 15.5705 0.60666 -5.09444 -0.470851 0 0 0 3.43651 -4.9891 1.28329 -4.51613 7.29873 1.97594 8.27584 6.58757 -2.72473 -4.26313 4.3771 1.30402 -28.6963 3.65499 -6.97981 -28.482 5.18212 -37.0032 -43.3156 -30.0125 -62.0541 -17.7293 -0.854139 5.47401 22.4927 5.86729 16.6639 32.6799 -5.0197 21.3381 28.2221 -17.9351 60.1539 13.8466 -0.348666 -2.87103 1.09073 6.59211 7.50224 -0.684669 3.79098 -2.20007 1.37983 -5.61545 0.0676139 0.282012 0.512767 -1.29684 -2.12584 6.46707 -9.02842 -0.214224 3.69255 -4.19563 -4.2364 -1.29928 -0.0469429 2.61836 -9.49658 -1.99348 
